<svg width="119" height="34" viewBox="0 0 119 34" fill="none" xmlns="http://www.w3.org/2000/svg">
<path d="M96 23.7938H115.102C117.255 23.7938 119 25.5392 119 27.6921V33.2797H96V23.7938Z" fill="#41E0FE"/>
<path fill-rule="evenodd" clip-rule="evenodd" d="M25.6799 16.8745V33.749H29.3745H33.0692V16.8745V0H29.3745H25.6799V16.8745ZM65.8341 12.9435C65.8607 21.3795 65.8971 23.1035 66.0668 23.9467C67.0308 28.7378 70.4856 32.3402 75.3043 33.5786C76.9984 34.014 80.3682 34.1371 82.1591 33.8291C83.7278 33.5593 85.6352 32.8759 86.9233 32.1219C88.3686 31.2758 90.3693 29.2942 91.1396 27.9458C92.1347 26.2037 92.832 23.6835 92.832 21.8293V21.3444L89.4939 21.3786L86.1557 21.4127L86.0709 22.2436C85.815 24.7526 83.908 26.8889 81.3341 27.5499C80.3575 27.8007 78.5895 27.7805 77.5243 27.5063C75.3669 26.9509 73.6348 25.2215 73.0613 23.0499C72.914 22.4925 72.8679 21.5308 72.8679 19.0209V15.724H80.8406H88.8133V12.5919V9.45994H80.8406H72.8679V6.2001V2.94025H69.3352H65.8026L65.8341 12.9435ZM9.45562 4.0261C4.93633 4.87366 1.5502 7.99736 0.378151 12.4002C0.0926897 13.4727 0.088411 13.6176 0.0444639 23.6179L0 33.749H3.18195H6.3639V30.7448V27.7406H12.8458H19.3276V24.5424V21.3442L13.0078 21.3488C9.53198 21.3513 6.61099 21.3524 6.51687 21.3511C6.37829 21.3492 6.35418 20.6638 6.3897 17.7374C6.43948 13.6414 6.51285 13.2673 7.5248 11.9455C8.79097 10.2918 10.7494 9.65349 12.9724 10.1702C15.0671 10.657 16.5194 12.4595 16.7005 14.7971L16.7724 15.724H20.0788H23.3852L23.3019 14.6054C22.9204 9.47784 19.666 5.48894 14.8235 4.21338C13.4838 3.86042 10.832 3.76787 9.45562 4.0261ZM47.6104 9.35179C47.1588 9.41545 46.2546 9.63713 45.601 9.84422C41.6809 11.0862 38.5037 14.3766 37.4547 18.2807C37.2095 19.1928 37.1618 19.706 37.1577 21.4766C37.1536 23.281 37.1965 23.7523 37.4547 24.7365C38.5119 28.7655 41.5424 31.9696 45.5144 33.2582C46.5221 33.5851 47.023 33.669 48.2692 33.7192L49.7924 33.7806V30.7192V27.6581L48.7656 27.5243C45.6833 27.1231 43.5639 24.7476 43.5729 21.7044C43.5747 21.1221 43.6366 20.3868 43.7105 20.0704C44.553 16.4632 48.7656 14.5761 52.317 16.215C53.8228 16.9099 54.88 18.113 55.3819 19.7029C55.6078 20.4189 55.6261 20.9719 55.6261 27.1128V33.749H58.8994L62.1728 33.7491L62.1413 26.8138C62.1152 21.1016 62.0735 19.6983 61.9047 18.856C60.9158 13.9213 56.553 9.96771 51.4099 9.34578C50.0711 9.18381 48.7851 9.18586 47.6104 9.35179ZM98.925 28.8273V31.5758H99.58H100.235L100.196 29.7963C100.174 28.8175 100.186 28.0454 100.221 28.0804C100.257 28.1155 100.528 28.8444 100.823 29.7001L101.36 31.2562H101.988H102.616L103.201 29.6582L103.786 28.0602L103.822 29.818L103.858 31.5758H104.503H105.148V28.8273V26.0788H104.248C103.753 26.0788 103.313 26.1342 103.271 26.202C103.228 26.2699 102.94 27.0516 102.63 27.9393C102.32 28.827 102.038 29.5049 102.004 29.446C101.97 29.3869 101.695 28.6052 101.395 27.7087L100.848 26.0788H99.8865H98.925V28.8273ZM106.055 28.8273V31.5758H106.698H107.341L107.379 30.4848L107.416 29.3937L108.256 30.4848L109.096 31.5758H109.909C110.356 31.5758 110.722 31.5461 110.722 31.5099C110.722 31.4736 110.226 30.8671 109.62 30.1623C109.014 29.4572 108.518 28.8485 108.518 28.8095C108.518 28.7705 109.017 28.1401 109.627 27.4086L110.737 26.0788H109.95H109.164L108.29 27.1757L107.416 28.2727L107.379 27.1757L107.341 26.0788H106.698H106.055V28.8273ZM111.197 26.164C111.15 26.2108 111.111 26.4697 111.111 26.7393V27.2293H111.759H112.407V29.4025V31.5758L113.088 31.5759L113.768 31.5761L113.73 29.4026L113.692 27.2293H114.346H115V26.654V26.0788H113.142C112.12 26.0788 111.245 26.1171 111.197 26.164Z" fill="white"/>
</svg>
